<?xml version="1.0" standalone="no"?><!DOCTYPE svg PUBLIC "-//W3C//DTD SVG 1.1//EN" "http://www.w3.org/Graphics/SVG/1.1/DTD/svg11.dtd"><svg t="1592376235427" class="icon" viewBox="0 0 1024 1024" version="1.1" xmlns="http://www.w3.org/2000/svg" p-id="1050" xmlns:xlink="http://www.w3.org/1999/xlink" width="200" height="200"><defs><style type="text/css"></style></defs><path d="M559.406592 548.601856q0 7.428096-5.71392 13.142016l-266.268672 266.268672q-5.71392 5.71392-13.142016 5.71392t-13.142016-5.71392l-28.5696-28.5696q-5.71392-5.71392-5.71392-13.142016t5.71392-13.142016l224.557056-224.557056-224.557056-224.557056q-5.71392-5.71392-5.71392-13.142016t5.71392-13.142016l28.5696-28.5696q5.71392-5.71392 13.142016-5.71392t13.142016 5.71392l266.268672 266.268672q5.71392 5.71392 5.71392 13.142016zm219.414528 0q0 7.428096-5.71392 13.142016l-266.268672 266.268672q-5.71392 5.71392-13.142016 5.71392t-13.142016-5.71392l-28.5696-28.5696q-5.71392-5.71392-5.71392-13.142016t5.71392-13.142016l224.557056-224.557056-224.557056-224.557056q-5.71392-5.71392-5.71392-13.142016t5.71392-13.142016l28.5696-28.5696q5.71392-5.71392 13.142016-5.71392t13.142016 5.71392l266.268672 266.268672q5.71392 5.71392 5.71392 13.142016z" fill="#cdcdcd" p-id="1051"></path></svg>